<svg width="17" height="9" viewBox="0 0 17 9" fill="none" xmlns="http://www.w3.org/2000/svg">
<path d="M0.106712 3.7958L3.77427 0.128205C3.90602 -0.0256357 4.13755 -0.0435695 4.29139 0.0882084C4.44523 0.219955 4.46317 0.451488 4.33139 0.605329C4.3191 0.619669 4.30573 0.633065 4.29139 0.645325L1.25098 3.68942H15.7709C15.9735 3.68942 16.1377 3.85363 16.1377 4.0562C16.1377 4.25877 15.9735 4.42295 15.7709 4.42295H1.25098L4.29139 7.46336C4.44523 7.59511 4.46317 7.82664 4.33139 7.98048C4.19961 8.13432 3.96811 8.15225 3.81427 8.02048C3.79993 8.00818 3.78653 7.99482 3.77427 7.98048L0.10668 4.31289C-0.0354996 4.16989 -0.0354996 3.93886 0.106712 3.7958Z" fill="white"/>
</svg>
