<svg width="30" height="30" viewBox="0 0 30 30" fill="none" xmlns="http://www.w3.org/2000/svg">
<g clip-path="url(#clip0_0_220)">
<path d="M26.25 0H3.75C1.68125 0 0 1.68125 0 3.75V26.25C0 28.3175 1.68125 30 3.75 30H26.25C28.3175 30 30 28.3175 30 26.25V3.75C30 1.68125 28.3175 0 26.25 0Z" fill="#3B5999"/>
<path d="M20.625 15V11.25C20.625 10.215 21.465 10.3125 22.5 10.3125H24.375V5.625H20.625C17.5175 5.625 15 8.1425 15 11.25V15H11.25V19.6875H15V30H20.625V19.6875H23.4375L25.3125 15H20.625Z" fill="white"/>
</g>
<defs>
<clipPath id="clip0_0_220">
<rect width="30" height="30" fill="white"/>
</clipPath>
</defs>
</svg>
