<svg width="17" height="9" viewBox="0 0 17 9" fill="none" xmlns="http://www.w3.org/2000/svg">
<path d="M16.031 3.7958L12.3634 0.128205C12.2317 -0.0256357 12.0001 -0.0435695 11.8463 0.0882084C11.6925 0.219955 11.6745 0.451488 11.8063 0.605329C11.8186 0.619669 11.832 0.633065 11.8463 0.645325L14.8867 3.68942H0.366747C0.16421 3.68942 0 3.85363 0 4.0562C0 4.25877 0.16421 4.42295 0.366747 4.42295H14.8867L11.8463 7.46336C11.6925 7.59511 11.6745 7.82664 11.8063 7.98048C11.9381 8.13432 12.1696 8.15225 12.3234 8.02048C12.3378 8.00818 12.3512 7.99482 12.3634 7.98048L16.031 4.31289C16.1732 4.16989 16.1732 3.93886 16.031 3.7958Z" fill="black"/>
</svg>
