<svg width="22" height="15" viewBox="0 0 22 15" fill="none" xmlns="http://www.w3.org/2000/svg">
<path d="M0.106712 3.7958L3.77427 0.128205C3.90602 -0.0256357 4.13755 -0.0435695 4.29139 0.0882084C4.44523 0.219955 4.46317 0.451488 4.33139 0.605329C4.3191 0.619669 4.30573 0.633065 4.29139 0.645325L1.25098 3.68942H15.7709C15.9735 3.68942 16.1377 3.85363 16.1377 4.0562C16.1377 4.25877 15.9735 4.42295 15.7709 4.42295H1.25098L4.29139 7.46336C4.44523 7.59511 4.46317 7.82664 4.33139 7.98048C4.19961 8.13432 3.96811 8.15225 3.81427 8.02048C3.79993 8.00818 3.78653 7.99482 3.77427 7.98048L0.10668 4.31289C-0.0354996 4.16989 -0.0354996 3.93886 0.106712 3.7958Z" fill="white"/>
<path d="M21.031 9.7958L17.3634 6.12821C17.2317 5.97436 17.0001 5.95643 16.8463 6.08821C16.6925 6.21995 16.6745 6.45149 16.8063 6.60533C16.8186 6.61967 16.832 6.63306 16.8463 6.64533L19.8867 9.68942H5.36675C5.16421 9.68942 5 9.85363 5 10.0562C5 10.2588 5.16421 10.4229 5.36675 10.4229H19.8867L16.8463 13.4634C16.6925 13.5951 16.6745 13.8266 16.8063 13.9805C16.9381 14.1343 17.1696 14.1523 17.3234 14.0205C17.3378 14.0082 17.3512 13.9948 17.3634 13.9805L21.031 10.3129C21.1732 10.1699 21.1732 9.93886 21.031 9.7958Z" fill="white"/>
</svg>
