<svg width="30" height="30" viewBox="0 0 30 30" fill="none" xmlns="http://www.w3.org/2000/svg">
<g clip-path="url(#clip0_0_230)">
<path d="M27.6316 0H2.36842C1.06038 0 0 1.06038 0 2.36842V27.6316C0 28.9396 1.06038 30 2.36842 30H27.6316C28.9396 30 30 28.9396 30 27.6316V2.36842C30 1.06038 28.9396 0 27.6316 0Z" fill="#FF9800"/>
<path d="M15 7.10523C14.2122 7.10523 13.4422 7.33882 12.7872 7.77646C12.1322 8.21411 11.6217 8.83615 11.3203 9.56393C11.0188 10.2917 10.9399 11.0925 11.0936 11.8651C11.2473 12.6378 11.6266 13.3474 12.1837 13.9045C12.7407 14.4615 13.4504 14.8408 14.223 14.9945C14.9956 15.1482 15.7964 15.0693 16.5242 14.7678C17.252 14.4664 17.874 13.9559 18.3116 13.3009C18.7493 12.6459 18.9829 11.8759 18.9829 11.0881C18.9831 10.565 18.8803 10.047 18.6802 9.56363C18.4802 9.08028 18.1868 8.64111 17.8169 8.27121C17.447 7.90131 17.0078 7.60794 16.5245 7.40788C16.0411 7.20781 15.5231 7.10497 15 7.10523ZM15 13.0736C14.6073 13.0736 14.2234 12.9572 13.8969 12.739C13.5704 12.5209 13.3159 12.2108 13.1656 11.8479C13.0153 11.4851 12.976 11.0859 13.0526 10.7008C13.1292 10.3156 13.3183 9.96182 13.596 9.68414C13.8737 9.40646 14.2275 9.21736 14.6126 9.14075C14.9978 9.06413 15.397 9.10345 15.7598 9.25373C16.1226 9.40401 16.4327 9.6585 16.6509 9.98502C16.8691 10.3115 16.9855 10.6954 16.9855 11.0881C16.9858 11.3489 16.9346 11.6072 16.8349 11.8483C16.7352 12.0893 16.589 12.3083 16.4045 12.4927C16.2201 12.6771 16.0011 12.8233 15.7601 12.923C15.5191 13.0227 15.2608 13.0739 15 13.0736Z" fill="white"/>
<path d="M20.8697 15.6808C20.783 15.526 20.6666 15.3898 20.5272 15.2799C20.3878 15.1701 20.2281 15.0889 20.0572 15.0409C19.8864 14.9928 19.7077 14.979 19.5315 15C19.3553 15.0211 19.185 15.0767 19.0303 15.1637C16.3184 16.6835 13.6816 16.6835 10.9697 15.1637C10.8142 15.0769 10.6431 15.0215 10.4662 15.0008C10.2893 14.9801 10.1101 14.9945 9.93872 15.043C9.76736 15.0916 9.60725 15.1734 9.46752 15.2839C9.32779 15.3943 9.21118 15.5312 9.12435 15.6867C9.03752 15.8423 8.98217 16.0133 8.96147 16.1903C8.94076 16.3672 8.9551 16.5464 9.00367 16.7178C9.10176 17.0638 9.3333 17.3568 9.64738 17.5321C10.537 18.037 11.4875 18.4264 12.4757 18.6907L10.5572 20.6091C10.3052 20.8612 10.1637 21.203 10.1637 21.5594C10.1637 21.9159 10.3052 22.2577 10.5572 22.5098C10.8093 22.7618 11.1511 22.9034 11.5076 22.9034C11.864 22.9034 12.2058 22.7618 12.4579 22.5098L15 19.9578L17.5421 22.4999C17.7942 22.7519 18.136 22.8935 18.4924 22.8935C18.8489 22.8935 19.1907 22.7519 19.4428 22.4999C19.6948 22.2478 19.8364 21.906 19.8364 21.5496C19.8364 21.1931 19.6948 20.8513 19.4428 20.5992L17.5243 18.6808C18.5126 18.4165 19.463 18.0272 20.3526 17.5223C20.5077 17.4356 20.6442 17.3191 20.7542 17.1795C20.8642 17.0399 20.9455 16.88 20.9936 16.7089C21.0416 16.5378 21.0554 16.359 21.0341 16.1825C21.0129 16.0061 20.957 15.8356 20.8697 15.6808Z" fill="white"/>
</g>
<defs>
<clipPath id="clip0_0_230">
<rect width="30" height="30" fill="white"/>
</clipPath>
</defs>
</svg>
