<svg width="30" height="30" viewBox="0 0 30 30" fill="none" xmlns="http://www.w3.org/2000/svg">
<g clip-path="url(#clip0_0_223)">
<path d="M27.6316 0H2.36842C1.74028 0 1.13786 0.249529 0.693694 0.693694C0.249529 1.13786 0 1.74028 0 2.36842L0 27.6316C0 28.2597 0.249529 28.8621 0.693694 29.3063C1.13786 29.7505 1.74028 30 2.36842 30H27.6316C28.2597 30 28.8621 29.7505 29.3063 29.3063C29.7505 28.8621 30 28.2597 30 27.6316V2.36842C30 1.74028 29.7505 1.13786 29.3063 0.693694C28.8621 0.249529 28.2597 0 27.6316 0Z" fill="#4C75A3"/>
<path fill-rule="evenodd" clip-rule="evenodd" d="M14.8026 20.481H15.9592C16.1546 20.4585 16.3388 20.3781 16.4881 20.2501C16.5916 20.0994 16.6442 19.9196 16.6381 19.7369C16.6381 19.7369 16.6145 18.1836 17.3368 17.9606C18.0592 17.7376 18.9592 19.4606 19.9283 20.1317C20.6585 20.635 21.2151 20.5264 21.2151 20.5264L23.8026 20.4909C23.8026 20.4909 25.1566 20.406 24.5151 19.3422C24.4618 19.2554 24.1401 18.5527 22.5908 17.1159C20.9684 15.61 21.1855 15.8547 23.1395 13.2494C24.3237 11.6705 24.8052 10.6955 24.6572 10.2889C24.5092 9.88233 23.6408 9.9968 23.6408 9.9968L20.7276 10.0165C20.5983 10.001 20.4672 10.0236 20.3506 10.0817C20.2403 10.1633 20.1522 10.2712 20.0941 10.3955C19.7922 11.1777 19.4327 11.9363 19.0184 12.6652C17.7197 14.8679 17.2026 14.9843 16.9895 14.8481C16.496 14.5304 16.6204 13.5672 16.6204 12.8744C16.6204 10.7389 16.9441 9.85075 15.9888 9.61983C15.5445 9.5081 15.0868 9.45894 14.6289 9.47377C13.5908 9.47377 12.7105 9.47377 12.2131 9.72246C11.8816 9.8843 11.621 10.2455 11.7809 10.2672C12.1124 10.2963 12.4202 10.4509 12.6414 10.6994C12.9395 11.104 12.9296 12.0179 12.9296 12.0179C12.9296 12.0179 13.0993 14.5304 12.5349 14.8422C12.1401 15.0554 11.6033 14.6192 10.4467 12.6198C10.0518 11.9234 9.70241 11.2021 9.40064 10.4606C9.34703 10.3352 9.26452 10.2243 9.15985 10.1369C9.11355 10.1031 9.06396 10.074 9.01183 10.0501C8.8626 9.98496 8.70091 9.95329 8.53814 9.95733L5.94472 9.97509C5.94472 9.97509 5.52827 9.97509 5.3763 10.1725C5.22433 10.3698 5.36446 10.6659 5.36446 10.6659C5.36446 10.6659 7.53551 15.7363 9.98682 18.2922C12.2368 20.633 14.8026 20.481 14.8026 20.481Z" fill="white"/>
</g>
<defs>
<clipPath id="clip0_0_223">
<rect width="30" height="30" fill="white"/>
</clipPath>
</defs>
</svg>
