<?xml version="1.0" encoding="UTF-8"?>
<!DOCTYPE svg PUBLIC "-//W3C//DTD SVG 1.1//EN" "http://www.w3.org/Graphics/SVG/1.1/DTD/svg11.dtd">
<!-- Creator: CorelDRAW -->
<svg xmlns="http://www.w3.org/2000/svg" xml:space="preserve" width="147px" height="37px" shape-rendering="geometricPrecision" text-rendering="geometricPrecision" image-rendering="optimizeQuality" fill-rule="evenodd" clip-rule="evenodd"
viewBox="0 0 5.31068 1.3391"
 xmlns:xlink="http://www.w3.org/1999/xlink">
 <g id="Слой_x0020_1">
  <metadata id="CorelCorpID_0Corel-Layer"/>
  <path fill="#FEFEFE" fill-rule="nonzero" d="M1.77856 0.602977l0.0992023 -0.23349 -0.0865755 -0.207099 -0.00167949 -0.00401438 0.00435233 0 0.0348186 0 0.00193551 0 0.000747576 0.00180238 0.0711324 0.173151 0.0711324 -0.173151 0.000747576 -0.00180238 0.00193551 0 0.0348186 0 0.00435233 0 -0.00167949 0.00401438 -0.0865652 0.207089 0.100564 0.233531 0.186771 -0.446324 0.000747576 -0.00179213 0.00192526 0 0.0389969 0 0.00439329 0 -0.00173069 0.0040451 -0.211687 0.494414 -0.000757817 0.00176141 -0.00190478 0 -0.0327295 0 -0.00191502 0 -0.000757817 -0.00176141 -0.105971 -0.24795 -0.106647 0.24796 -0.000757817 0.00175117 -0.00191502 0 -0.0327295 0 -0.00190478 0 -0.000757817 -0.00176141 -0.211001 -0.494414 -0.00172045 -0.0040451 0.00439329 0 0.0383005 0 0.00192526 0 0.000747576 0.00178189 0.187447 0.446303zm-1.01674 -0.476278c-0.0109781,0.00891971 -0.0162931,0.0092679 -0.0129034,0.0151973 0.00347162,0.00608302 0.00455714,0.00868417 -0.00411679,0.00911429 -0.00867393,0.000440353 -0.014757,-0.000860225 -0.0119305,0.00347162 0.00281621,0.00434209 0.00758841,0.0095444 -0.0073836,0.0119305 -0.0149618,0.0023861 -0.0555357,0.0171431 -0.0800521,0.019099 -0.0245164,0.00194575 -0.0342861,0.0121456 -0.0375324,0.0201743 -0.00325657,0.00802876 -0.033856,0.0214749 -0.0418848,0.00932934 -0.00801852,-0.0121456 -0.0177882,-0.0308042 -0.013016,-0.041004 0.0231749,-0.0495141 -0.0288687,-0.012248 -0.0427245,-0.0320229 0.0813834,-0.0237381 0.178517,-0.036662 0.251544,-0.0152895zm0.144446 0.0438407c0.188256,0.0778913 0.287704,0.269035 0.315231,0.377147 -0.0330777,0.0261652 -0.0968367,0.08294 -0.103759,0.0448341 -0.006933,-0.0381161 -0.0189966,0.00158732 -0.0311422,-0.0296573 -0.0121558,-0.0312344 -0.0624892,-0.0590073 -0.0260423,-0.0121456 0.0364571,0.0468618 0.0103227,0.0261754 0.0276706,0.0504768 0.0173581,0.0243013 0.0329855,0.0381878 0.0607483,0.0295037 0.027773,-0.00867393 0.0225707,0.0173581 -0.00173069,0.0433901 -0.0243013,0.0260423 -0.0728938,0.0728938 -0.0711631,0.131911 0.00174093,0.0590176 0.0190888,0.0555357 -0.0190888,0.0867803 -0.0381878,0.0312446 -0.00868417,0.0399185 -0.0347162,0.0642199 -0.026032,0.0243013 -0.0190888,0.0520743 -0.0659506,0.0728938 -0.0468618,0.0208297 -0.0312446,0.0208297 -0.0451311,-0.0242911 -0.0138865,-0.0451311 -0.0485925,-0.0676915 -0.0451208,-0.123237 0.00347162,-0.0555357 0.026032,-0.0971952 -0.00174093,-0.126699 -0.0277627,-0.0295037 0.00174093,-0.0850496 -0.0399185,-0.081578 -0.0416595,0.00347162 -0.0937235,0.0399185 -0.133642,-0.027773 -0.0399185,-0.0676813 -0.0624892,-0.123227 -0.0208297,-0.149259 0.0416595,-0.026032 0.0399185,-0.0659506 0.0520641,-0.0763654 0.0121558,-0.0104149 0.0434004,0.0156172 0.112823,-0.00347162 0.0694222,-0.019099 0.0243013,0.00867393 0.0694222,0.0295037 0.0451311,0.0208297 0.0590176,0.00347162 0.0694324,-0.00347162 0.0104046,-0.00694324 0.0937235,-0.019099 0.0399185,-0.0399185 -0.0613217,-0.0237381 -0.0795913,-0.0100769 -0.0871592,-0.0478961 -0.006933,-0.034706 -0.092423,-0.0207785 -0.063206,-0.0082131 0.0292272,0.0125552 0.0549008,0.0283362 0.0427552,0.0309374 -0.0121456,0.00260116 -0.0229086,0.0178292 -0.0321458,0.0145317 -0.00922693,-0.00330777 0.0243321,-0.0101896 0.00611374,-0.0223454 -0.0182286,-0.0121456 -0.0303741,-0.00953416 -0.0364571,-0.02169 -0.00607278,-0.0121456 -0.006933,-0.014757 -0.006933,-0.014757 0,0 -0.0208297,-0.0121456 -0.046872,0.0260423 -0.026032,0.0381776 -0.0624789,0.0520641 -0.0728938,0.0121456 -0.0104149,-0.0399185 0.0937235,-0.0364469 0.0503334,-0.0624789 -0.0433901,-0.026032 0.0416595,-0.0364571 0.0624892,-0.0381878 0.0208195,-0.00173069 0.0746245,-0.0590073 0.0381776,-0.0503334 -0.0364469,0.00867393 -0.0520641,0.0138865 -0.0833087,-0.00694324 -0.030753,-0.020502 0.089832,-0.0124118 0.121773,-0.0436052zm-0.793363 0.400342c0.0292067,-0.13908 0.196715,-0.364674 0.339512,-0.400762 0.0364469,0 0.0227038,0.0522689 0.0417926,0.0852442 0.0190888,0.0329753 -0.00521255,0.0520743 -0.0850496,0.0642199 -0.0798371,0.0121558 -0.0676813,0.0659506 -0.105869,0.0833189 -0.0381878,0.0173479 -0.0590176,0.0642096 -0.0711631,0.0433799 -0.0121456,-0.0208195 -0.0503334,-0.0173479 -0.0746347,0.0503436 -0.0243013,0.0676813 0.0036662,0.0564471 0.0233797,0.0509683 0.0197135,-0.00546857 0.0147979,0.022755 0.0338867,0.0539893 0.0190888,0.0312446 0.0624994,0.0147979 0.104149,0.00265236 0.0416595,-0.0121558 0.102408,0.0190888 0.114553,0.0520641 0.0121558,0.0329753 0,0.0590176 0.0833087,0.0885212 0.0833087,0.0295037 0.0572766,0.0399185 0.0451311,0.0763654 -0.0121558,0.0364571 -0.0173581,0.0572766 -0.0416595,0.0919928 -0.0242911,0.034706 0.0121558,0.0555357 -0.0242911,0.0728938 -0.0364571,0.0173581 -0.0781064,0.0486027 -0.0763757,0.081578 0.00174093,0.0329753 0.0295139,0.0885212 -0.0208297,0.0503334 -0.0503334,-0.0381878 -0.0676813,-0.105879 -0.0746245,-0.203074 -0.00694324,-0.0971952 -0.0329855,-0.0468618 -0.0694324,-0.0885212 -0.0364469,-0.0416492 -0.0338355,-0.0963247 -0.0190888,-0.124098 0.014757,-0.0277627 0.0251718,-0.0598778 -0.00520231,-0.0633494 -0.0303741,-0.00347162 -0.0433901,-0.0112751 -0.0555459,-0.0425197 -0.0121456,-0.0312446 -0.0164876,-0.0104149 -0.0433901,-0.014757 -0.00956488,-0.00153612 -0.0154021,-0.00473124 -0.0185563,-0.0107835zm1.43636 0.565004l2.2183 0 0 0.000153612 0.00141323 0 0 -0.000604205c0.0150744,-0.000757817 0.0280495,-0.0066053 0.0390071,-0.0174605 0.0117564,-0.011654 0.0176346,-0.0259501 0.0176346,-0.0427757 0,-0.0164262 -0.00577579,-0.0305175 -0.0175424,-0.0421715 -0.00627759,-0.00639024 -0.0190581,-0.0156172 -0.0383107,-0.0279778 -0.022714,-0.0122684 -0.0384234,-0.022714 -0.0471485,-0.0314289 -0.0136817,-0.0136919 -0.0204713,-0.0301079 -0.0204713,-0.0492786 0,-0.0194575 0.00678963,-0.0359861 0.0204713,-0.0497701 0.011951,-0.0121251 0.0261754,-0.0189147 0.0424582,-0.0203791 0,-0.000553002 0.0806973,-0.000296982 0.0883676,-0.000296982l0 0.0259399c-0.0278344,0 -0.056058,-0.000112648 -0.0797858,-0.000296982 -0.0118588,-8.19262e-005 -0.0238712,0.00558122 -0.0323813,0.0139889 -0.00852032,0.00841791 -0.0127702,0.0186587 -0.0127702,0.0308145 0,0.0118691 0.00424992,0.0220074 0.0127702,0.0305175 0.00496677,0.00496677 0.0155045,0.0124733 0.0315211,0.0226116 0.0253459,0.0138865 0.0433901,0.0261549 0.0540405,0.0367951 0.0168256,0.0170304 0.0252435,0.0373071 0.0252435,0.0609326 0,0.0241273 -0.00841791,0.044701 -0.0252435,0.0616392 -0.0168256,0.016928 -0.0372047,0.0253357 -0.0612296,0.0253357 -0.00278549,0 -0.00550953,-0.000112648 -0.00820286,-0.000337945l-2.20815 0 0 -0.0259501zm-0.879703 -1.1359c0.184877,0 0.352272,0.0749522 0.473441,0.196121 0.121148,0.121159 0.196111,0.288554 0.196111,0.473441 0,0.184887 -0.0749624,0.352283 -0.196111,0.473441 -0.121169,0.121159 -0.288564,0.196111 -0.473441,0.196111 -0.184877,0 -0.352283,-0.074942 -0.473441,-0.196111 -0.121169,-0.121159 -0.196111,-0.288564 -0.196111,-0.473441 0,-0.184877 0.074942,-0.352283 0.196111,-0.473441 0.121159,-0.121169 0.288564,-0.196121 0.473441,-0.196121zm0.441756 0.227806c-0.113048,-0.113058 -0.26924,-0.182982 -0.441756,-0.182982 -0.172526,0 -0.328719,0.069924 -0.441766,0.182982 -0.113048,0.113038 -0.182972,0.26923 -0.182972,0.441756 0,0.172526 0.069924,0.328719 0.182972,0.441756 0.113048,0.113058 0.26924,0.182982 0.441766,0.182982 0.172516,0 0.328708,-0.0699342 0.441756,-0.182982 0.113038,-0.113048 0.182972,-0.26924 0.182972,-0.441756 0,-0.172526 -0.0699342,-0.328719 -0.182972,-0.441756zm2.86262 0.635624l0 -0.12419 0.0266567 0 0 0.12419 0.0594067 0 0 0.0267591 -0.0594067 0 0 0.264898 -0.0266567 0 0 -0.264898 -0.0594067 0 0 -0.0267591 0.0594067 0zm0.277668 0.295815c-0.0363957,0 -0.0654897,-0.0107426 -0.0869851,-0.0323404 -0.0215875,-0.0215875 -0.0327397,-0.0488587 -0.033344,-0.0817009l0 -0.181774 0.0267591 0 0 0.179439c0,0.0247315 0.00902212,0.0458172 0.0270664,0.0632572 0.0178394,0.0175424 0.0398366,0.0263597 0.0661963,0.0263597 0.0245369,0 0.0458275,-0.00872514 0.0636669,-0.0262573 0.0179418,-0.0175424 0.0269639,-0.0386282 0.0269639,-0.0633597l0 -0.179439 0.026667 0 0 0.181774c-0.000614446,0.0328422 -0.0116642,0.0601133 -0.0332518,0.0817009 -0.0215978,0.0215978 -0.0494732,0.0323404 -0.0837388,0.0323404zm0.520969 -0.00415775l-0.0267591 0 0 -0.0593965c-0.00517159,0.00689204 -0.0107426,0.0135793 -0.016928,0.0198671 -0.0318283,0.0319307 -0.0703541,0.0478449 -0.115475,0.0478449 -0.0450082,0 -0.0834316,-0.0159142 -0.11526,-0.0478449 -0.0319307,-0.0318386 -0.0478551,-0.0702619 -0.0478551,-0.115168 0,-0.045213 0.0159244,-0.0837388 0.0478551,-0.115567 0.0318283,-0.0318386 0.0702517,-0.0478449 0.11526,-0.0478449 0.0451208,0 0.0836466,0.0160063 0.115475,0.0478449 0.00618543,0.00628783 0.0117564,0.0129751 0.016928,0.0198671l0 -0.224857 0.0267591 0 0 0.475254zm-0.0267591 -0.128337l0 -0.0528219c-0.00496677,-0.0261549 -0.0173376,-0.0490635 -0.0371023,-0.0689306 -0.0263597,-0.0263597 -0.0580959,-0.0394372 -0.0953006,-0.0394372 -0.0373071,0 -0.069033,0.0130775 -0.0953928,0.0394372 -0.0263597,0.0263597 -0.0394372,0.0580857 -0.0394372,0.0953928 0,0.0372047 0.0130775,0.0689306 0.0394372,0.0951982 0.0263597,0.0261549 0.0580857,0.0393348 0.0953928,0.0393348 0.0372047,0 0.0689409,-0.0131799 0.0953006,-0.0395396 0.0197647,-0.0197749 0.0321355,-0.0426835 0.0371023,-0.0686336zm0.148512 -0.16332l0 0.291657 -0.0267591 0 0 -0.291657 0.0267591 0zm-0.0133744 -0.103299c0.00729143,0 0.0135793,0.00252947 0.0188533,0.00770106 0.005274,0.00506918 0.00790588,0.011357 0.00790588,0.0186587 0,0.00749624 -0.00263188,0.0138865 -0.00790588,0.0190581 -0.005274,0.00516135 -0.0115618,0.00770106 -0.0188533,0.00770106 -0.00730167,0 -0.0135895,-0.00253971 -0.0188533,-0.00770106 -0.005274,-0.00517159 -0.00791612,-0.0115618 -0.00791612,-0.0190581 0,-0.00730167 0.00264212,-0.0135895 0.00791612,-0.0186587 0.00526376,-0.00517159 0.0115516,-0.00770106 0.0188533,-0.00770106zm0.253643 0.0768467c0.0451106,0 0.0836364,0.0160063 0.115362,0.0478449 0.0318386,0.0318283 0.0476503,0.0703541 0.0476503,0.115567 0,0.0449058 -0.0158118,0.0833292 -0.0476503,0.115168 -0.0317259,0.0319307 -0.0702517,0.0478449 -0.115362,0.0478449 -0.044916,0 -0.0833394,-0.0159142 -0.11527,-0.0478449 -0.0318283,-0.0318386 -0.0477425,-0.0702619 -0.0477425,-0.115168 0,-0.045213 0.0159142,-0.0837388 0.0477425,-0.115567 0.0319307,-0.0318386 0.0703541,-0.0478449 0.11527,-0.0478449zm0 0.028582c-0.0372047,0 -0.0690433,0.0130775 -0.0953006,0.0394372 -0.0263495,0.0263597 -0.0395294,0.0580857 -0.0395294,0.0953928 0,0.0372047 0.0131799,0.0689306 0.0395294,0.0951982 0.0262573,0.0261549 0.0580959,0.0393348 0.0953006,0.0393348 0.0372047,0 0.069033,-0.0131799 0.0953928,-0.0393348 0.0262573,-0.0262676 0.0394372,-0.0579935 0.0394372,-0.0951982 0,-0.0373071 -0.0131799,-0.069033 -0.0394372,-0.0953928 -0.0263597,-0.0263597 -0.0581881,-0.0394372 -0.0953928,-0.0394372zm-2.6583 -0.206372c0.017522,-0.000112648 0.0342349,-0.00232466 0.0502515,-0.00672819 0.0160166,-0.00441377 0.0308657,-0.0106811 0.0444449,-0.0186894 0.0135793,-0.00812093 0.0254176,-0.0176448 0.035515,-0.0286639 0.0100974,-0.0110293 0.017993,-0.0231032 0.0236767,-0.0364469l-0.041086 -0.011142c-0.00579628,0.0131184 -0.0142756,0.0244857 -0.0256429,0.0343578 -0.0113775,0.00974921 -0.024373,0.0174093 -0.0392324,0.0227448 -0.0148491,0.00545833 -0.0304048,0.00824382 -0.0465443,0.00835647 -0.017522,-0.000112648 -0.0339994,-0.00348186 -0.0494322,-0.0100974 -0.0155557,-0.00672819 -0.0293705,-0.0161292 -0.0414342,-0.0282031 -0.0120739,-0.0120739 -0.0219357,-0.0263495 -0.0293603,-0.0428269 -0.0074348,-0.0163648 -0.0119612,-0.0343475 -0.0134666,-0.0539689l0.309875 0c0.000348186,-0.00161804 0.000696372,-0.00417823 0.00093191,-0.00788539 0.000348186,-0.00360475 0.000460835,-0.00731191 0.000460835,-0.0109167 -0.000225297,-0.0250694 -0.00476196,-0.0487461 -0.0134666,-0.07103 -0.00870466,-0.0222737 -0.0210038,-0.0421305 -0.0368975,-0.0593043 -0.0159039,-0.0171738 -0.0348186,-0.030753 -0.0566417,-0.0405022 -0.0219357,-0.00986186 -0.0460732,-0.0148594 -0.072648,-0.0150847 -0.0264622,0.000112648 -0.0507225,0.0050999 -0.0727709,0.0148491 -0.0220484,0.00974921 -0.0413215,0.0232158 -0.0575634,0.040277 -0.0162521,0.0171738 -0.0288995,0.0370204 -0.0378396,0.059417 -0.00894019,0.0224068 -0.0134666,0.0464317 -0.0135793,0.0720745 0.000112648,0.0260013 0.00463907,0.0502515 0.0135793,0.0731191 0.00905284,0.0227448 0.0215875,0.0428269 0.0379523,0.0602362 0.0163648,0.0174093 0.035515,0.0311012 0.0577989,0.0409733 0.022161,0.00986186 0.0465341,0.0148491 0.0731191,0.0150847zm-0.133704 -0.207519c0.00126986,-0.0192629 0.00557098,-0.0369077 0.0128829,-0.0529243 0.00719926,-0.0160166 0.0168256,-0.0298211 0.0287868,-0.0416595 0.011951,-0.0117257 0.0257555,-0.0207785 0.0413113,-0.0272814 0.0154328,-0.00638 0.0321458,-0.00962632 0.0500262,-0.00973897 0.0178701,0.000112648 0.0345831,0.00324632 0.0500159,0.00962632 0.0155557,0.00638 0.0293603,0.0154328 0.0414342,0.0271585 0.0120739,0.0117257 0.0218231,0.0256531 0.0292476,0.0416697 0.00742456,0.0160166 0.0120739,0.0337741 0.0136919,0.0531496l-0.267397 0zm2.54111 0.207519c0.017522,-0.000112648 0.0342349,-0.00232466 0.0502515,-0.00672819 0.0160166,-0.00441377 0.0308759,-0.0106811 0.0444449,-0.0186894 0.0135895,-0.00812093 0.0254278,-0.0176448 0.035515,-0.0286639 0.0101076,-0.0110293 0.017993,-0.0231032 0.0236767,-0.0364469l-0.041086 -0.011142c-0.00579628,0.0131184 -0.0142654,0.0244857 -0.0256429,0.0343578 -0.0113775,0.00974921 -0.024373,0.0174093 -0.0392324,0.0227448 -0.0148491,0.00545833 -0.0304048,0.00824382 -0.0465341,0.00835647 -0.0175322,-0.000112648 -0.0340096,-0.00348186 -0.0494424,-0.0100974 -0.0155557,-0.00672819 -0.0293603,-0.0161292 -0.0414342,-0.0282031 -0.0120636,-0.0120739 -0.0219357,-0.0263495 -0.0293603,-0.0428269 -0.0074348,-0.0163648 -0.011951,-0.0343475 -0.0134666,-0.0539689l0.309875 0c0.000348186,-0.00161804 0.000696372,-0.00417823 0.00093191,-0.00788539 0.000348186,-0.00360475 0.000471075,-0.00731191 0.000471075,-0.0109167 -0.000235538,-0.0250694 -0.00476196,-0.0487461 -0.0134666,-0.07103 -0.00870466,-0.0222737 -0.0210141,-0.0421305 -0.0369077,-0.0593043 -0.0159039,-0.0171738 -0.0348186,-0.030753 -0.0566417,-0.0405022 -0.0219357,-0.00986186 -0.0460732,-0.0148594 -0.072648,-0.0150847 -0.0264622,0.000112648 -0.0507225,0.0050999 -0.0727709,0.0148491 -0.0220484,0.00974921 -0.0413215,0.0232158 -0.0575634,0.040277 -0.0162521,0.0171738 -0.0288995,0.0370204 -0.0378396,0.059417 -0.00892995,0.0224068 -0.0134564,0.0464317 -0.0135793,0.0720745 0.000122889,0.0260013 0.00464931,0.0502515 0.0135793,0.0731191 0.00905284,0.0227448 0.0215875,0.0428269 0.0379523,0.0602362 0.0163648,0.0174093 0.035515,0.0311012 0.0577989,0.0409733 0.0221713,0.00986186 0.0465443,0.0148491 0.0731191,0.0150847zm-0.133704 -0.207519c0.0012801,-0.0192629 0.00557098,-0.0369077 0.0128829,-0.0529243 0.00719926,-0.0160166 0.0168358,-0.0298211 0.0287868,-0.0416595 0.011951,-0.0117257 0.0257658,-0.0207785 0.0413113,-0.0272814 0.0154431,-0.00638 0.0321458,-0.00962632 0.0500262,-0.00973897 0.0178701,0.000112648 0.0345831,0.00324632 0.0500159,0.00962632 0.0155557,0.00638 0.0293705,0.0154328 0.0414342,0.0271585 0.0120739,0.0117257 0.0218231,0.0256531 0.0292476,0.0416697 0.00742456,0.0160166 0.0120739,0.0337741 0.0136919,0.0531496l-0.267397 0zm-1.82267 0.207836c-0.00934982,0.001659 -0.0190274,0.00251923 -0.0290326,0.00257043l-3.07223e-005 0c-0.00973897,-5.12039e-005 -0.0192731,-0.000962632 -0.0285615,-0.0027138 -0.00933958,-0.00176141 -0.0184744,-0.00436257 -0.0273633,-0.00780347l-1.02408e-005 0c-0.00889923,-0.00348186 -0.0173786,-0.00757817 -0.0254278,-0.0123299 -0.00806973,-0.00476196 -0.0157093,-0.0101588 -0.0229598,-0.0162316 -0.00718902,-0.00600109 -0.0138046,-0.012504 -0.0198261,-0.0194779 -0.00385053,-0.00446498 -0.00745528,-0.00911429 -0.010804,-0.0139377l0 0.0626428 0 0.00289814 -0.00290838 0 -0.0313368 0 -0.00290838 0 0 -0.00289814 0 -0.508342 0 -0.00290838 0.00290838 0 0.0348186 0 0.00289814 0 0 0.00290838 0 0.215722c0.00414751,-0.00569387 0.00845888,-0.0111522 0.0129443,-0.016375l0 -1.02408e-005c0.00642096,-0.00745528 0.0132106,-0.0144292 0.0203996,-0.0209014l1.02408e-005 0c0.00722998,-0.00646193 0.0147877,-0.0122172 0.0226833,-0.0172455 0.00792636,-0.00502822 0.0162623,-0.00938055 0.0250284,-0.0129853l-1.02408e-005 -1.02408e-005c0.0087661,-0.0036662 0.0179213,-0.00642096 0.0274965,-0.00827454 0.00952392,-0.00184334 0.0194882,-0.00278549 0.0298928,-0.00284693l3.07223e-005 0c0.0105173,6.14446e-005 0.0205839,0.0010036 0.0302205,0.00281621 0.00965705,0.00182286 0.0188942,0.00451618 0.0277115,0.00806973l1.02408e-005 0c0.00872514,0.00353307 0.0170099,0.0077625 0.0248236,0.0126781 0.00778299,0.00489509 0.0151154,0.0104865 0.0219869,0.0167641 0.0068818,0.00622639 0.0132413,0.0129443 0.0190581,0.0201436 0.00578604,0.00714806 0.0110498,0.0147979 0.0157503,0.0229086l-1.02408e-005 0c0.00478244,0.00814141 0.00896067,0.0165388 0.0125552,0.0251616 0.00360475,0.00866369 0.00663602,0.0176141 0.00910405,0.0268411 0.00493605,0.0184641 0.00741432,0.037174 0.00741432,0.0562218l-2.04815e-005 2.04815e-005c-5.12039e-005,0.0102203 -0.00079878,0.0202358 -0.00225297,0.0300157 -0.00144395,0.00967753 -0.00358427,0.019181 -0.00645169,0.0285001 -0.00289814,0.00934982 -0.00640048,0.0183719 -0.0104968,0.0270459 -0.00405535,0.00858177 -0.00872514,0.0168461 -0.0139991,0.0247622l0 1.02408e-005c-0.00522279,0.00786491 -0.0109986,0.0152895 -0.0172967,0.0222327 -0.00628783,0.006933 -0.0130672,0.0133744 -0.0203177,0.0192629l-1.02408e-005 1.02408e-005c-0.00732215,0.00590892 -0.0150027,0.0111624 -0.0230315,0.0157503l-1.02408e-005 0c-0.00804925,0.00459811 -0.0164876,0.00855104 -0.0253357,0.0118588l0 0c-0.0088173,0.00331801 -0.0179316,0.00580652 -0.0273326,0.00747576zm-0.0513677 -0.0357403c0.00521255,0.000788539 0.0103227,0.00117769 0.0153612,0.00117769l0 2.04815e-005c0.00828478,-6.14446e-005 0.0162931,-0.00079878 0.0240146,-0.00222225 0.0077113,-0.00141323 0.0151461,-0.00352283 0.0222839,-0.00629807l2.04815e-005 -1.02408e-005c0.00716854,-0.00273429 0.0139991,-0.00601133 0.0204611,-0.0098209 0.00649265,-0.00381981 0.0126781,-0.0082131 0.0185051,-0.0131184l0 0c0.00578604,-0.00493605 0.0112034,-0.010251 0.0162111,-0.0159449 0.0049975,-0.00568363 0.0095956,-0.0117462 0.0137431,-0.0182286 0.00416799,-0.00645169 0.00785467,-0.0131287 0.0110498,-0.0200309 0.0032156,-0.00692276 0.00596013,-0.0140913 0.00823358,-0.0214851l-1.02408e-005 0c0.00223249,-0.00739384 0.00392222,-0.0148798 0.00503846,-0.0224273 0.00111624,-0.00750649 0.00167949,-0.0151256 0.00167949,-0.0228164l2.04815e-005 0c-6.14446e-005,-0.0100769 -0.000921669,-0.0199593 -0.00258067,-0.0296368 -0.001659,-0.00967753 -0.00411679,-0.01914 -0.00736311,-0.0283669 -0.00323608,-0.00921669 -0.00717878,-0.0179418 -0.0118178,-0.0261857 -0.00461859,-0.00820286 -0.00995403,-0.0159244 -0.0159858,-0.0231544l-1.02408e-005 -3.07223e-005c-0.00597037,-0.00727095 -0.012504,-0.0137431 -0.0196008,-0.0194575 -0.00707637,-0.00568363 -0.014757,-0.0106299 -0.023011,-0.0148389 -0.0082131,-0.00419872 -0.0168973,-0.00737336 -0.0260013,-0.00950344 -0.00912453,-0.00214032 -0.0186792,-0.00325657 -0.0286127,-0.00330777 -0.00760889,5.12039e-005 -0.0149515,0.000706613 -0.0220586,0.00198671 -0.00708661,0.00126986 -0.0139377,0.00317464 -0.0205532,0.00571435l-1.02408e-005 1.02408e-005c-0.00663602,0.00249875 -0.0129751,0.00546857 -0.0190171,0.00888899 -0.00609326,0.00346138 -0.0119203,0.00739384 -0.0174605,0.0117871l-1.02408e-005 1.02408e-005c-0.0056017,0.00441377 -0.0108962,0.00912453 -0.0158527,0.0141323 -0.00494629,0.00498726 -0.00963657,0.0103329 -0.0140503,0.0160166l0 -1.02408e-005c-0.00428064,0.00558122 -0.00825406,0.0113673 -0.0119203,0.0173274 -0.00361499,0.00588844 -0.00690228,0.0118895 -0.0098721,0.0179828l0 0.118988c0.000624687,0.00512039 0.00176141,0.0101076 0.00343066,0.0149618 0.00168973,0.00490533 0.00392222,0.00968777 0.00671795,0.0143268l1.02408e-005 2.04815e-005c0.00275477,0.00465955 0.00593965,0.00917573 0.00953416,0.0135076 0.00362523,0.00436257 0.00761913,0.00851008 0.011951,0.0123913l2.04815e-005 1.02408e-005c0.00438305,0.00398366 0.00900164,0.00769082 0.013825,0.0111112 0.00483364,0.00342042 0.00989258,0.00658482 0.0151871,0.00948295 0.00536616,0.0028879 0.010804,0.00548905 0.0162726,0.0077625 0.0053764,0.00222225 0.0107631,0.00414751 0.0161292,0.00570411l0 1.02408e-005c0.00544809,0.00156684 0.010804,0.00275477 0.0160985,0.00356379zm0.810793 -0.226935c0.00184334,0.0144907 0.00275477,0.0302308 0.00269332,0.0471792l1.02408e-005 0 0 0.208215 0 0.00289814 -0.00290838 0 -0.0348084 0 -0.00290838 0 0 -0.00289814 0 -0.201948c0,-0.0225604 -0.00175117,-0.0422125 -0.005274,-0.0589152 -0.0034921,-0.0165593 -0.00872514,-0.0302205 -0.0157196,-0.0409426 -0.00690228,-0.0105787 -0.0155352,-0.0185153 -0.0258887,-0.0237791 -0.0104046,-0.00529448 -0.0225911,-0.00791612 -0.0365493,-0.00786491 -0.00988234,5.12039e-005 -0.0193858,0.00126986 -0.0284796,0.00362523 -0.00908356,0.00236562 -0.017778,0.0058782 -0.0260525,0.0105173 -0.00830527,0.00465955 -0.0160268,0.0102305 -0.0231544,0.016672 -0.00713782,0.00646193 -0.0137329,0.013866 -0.0197852,0.0221918l-1.02408e-005 2.04815e-005c-0.00604205,0.00825406 -0.0113161,0.0171943 -0.0158425,0.0267796 -0.00446498,0.00949319 -0.0082131,0.019652 -0.0112136,0.0304765l0 0.223167 0 0.00289814 -0.00290838 0 -0.0348186 0 -0.00289814 0 0 -0.00289814 0 -0.201948 1.02408e-005 0c5.12039e-005,-0.0228779 -0.00166925,-0.042704 -0.00515111,-0.0594989 -0.00345114,-0.0166208 -0.00863297,-0.0302205 -0.0155045,-0.0408197l-1.02408e-005 -1.02408e-005c-0.00679987,-0.0105173 -0.0153304,-0.0183719 -0.0256019,-0.0235435 -0.0103432,-0.00520231 -0.022499,-0.00774202 -0.0364674,-0.00762937l-1.02408e-005 0c-0.00962632,5.12039e-005 -0.0189557,0.00124937 -0.0279675,0.00355355 -0.00902212,0.00230417 -0.0177063,0.00573483 -0.0260116,0.010251l0 0c-0.00835647,0.00460835 -0.0161395,0.0100872 -0.023349,0.0164467l0 1.02408e-005c-0.00724023,0.00639024 -0.0139274,0.0136714 -0.0200617,0.0218436l1.02408e-005 0c-0.00617518,0.00828478 -0.011613,0.0172659 -0.0162726,0.0269332 -0.00459811,0.00950344 -0.00846912,0.0197032 -0.0115926,0.0305789l0 0.223833 0 0.00289814 -0.00289814 0 -0.0348186 0 -0.00290838 0 0 -0.00289814 0 -0.362103 0 -0.00290838 0.00290838 0 0.0320331 0 0.00290838 0 0 0.00290838 0 0.075198c0.00368668,-0.00624687 0.00759865,-0.012166 0.0117359,-0.0177677 0.00622639,-0.00841791 0.0129751,-0.0161395 0.020246,-0.0231749l0 -1.02408e-005c0.00726071,-0.00703541 0.014931,-0.0132106 0.0229598,-0.0185563 0.00801852,-0.00534568 0.0164569,-0.0098721 0.0252845,-0.0135997 0.00883779,-0.00373788 0.0179623,-0.00656433 0.0273429,-0.0084384l0 -1.02408e-005c0.00933958,-0.00187406 0.0189352,-0.00281621 0.0287868,-0.00281621l2.04815e-005 1.02408e-005c0.0103944,6.14446e-005 0.0201026,0.00115721 0.0291452,0.00327705 0.00910405,0.00213008 0.0175834,0.00529448 0.0254586,0.00947271l2.04815e-005 1.02408e-005c0.00782395,0.00423968 0.0148696,0.00928838 0.0211779,0.0151768 0.00628783,0.00586796 0.0118486,0.0125859 0.0166822,0.0201743l1.02408e-005 0c0.00474148,0.00745528 0.00862273,0.0155865 0.0116745,0.0243526 0.00219152,0.00630831 0.0039427,0.0129443 0.00526376,0.0199081 0.00767034,-0.0134052 0.0159142,-0.0253459 0.0247315,-0.0358325 0.0104558,-0.0124221 0.0217002,-0.0228164 0.0337229,-0.0311934 0.0121046,-0.00841791 0.0250284,-0.0147672 0.0387613,-0.0190069 0.0136612,-0.0042192 0.0281109,-0.00634928 0.0433287,-0.00634928l1.02408e-005 1.02408e-005c0.0134564,6.14446e-005 0.0256429,0.00172045 0.0365493,0.00496677 0.0110088,0.00327705 0.0207376,0.00817214 0.0291555,0.014675 0.0084384,0.00651313 0.0157196,0.0144805 0.0218436,0.023861 0.00609326,0.00933958 0.01106,0.0200822 0.0149003,0.0322175l0 2.04815e-005c0.0037686,0.0121251 0.00659506,0.0254995 0.00845888,0.0401336zm0.222399 0.263249c-0.00970825,0.0013313 -0.0196111,0.00201743 -0.0297085,0.00201743l-1.02408e-005 -2.04815e-005c-0.00861249,-5.12039e-005 -0.0169485,-0.000819262 -0.024967,-0.00227345 -0.00807997,-0.00147467 -0.0158527,-0.00364571 -0.0232875,-0.00650289l-3.07223e-005 0c-0.0073836,-0.00289814 -0.0143371,-0.00638 -0.02084,-0.0104456 -0.00651313,-0.00408607 -0.0125245,-0.00872514 -0.018034,-0.0139377l0 0c-0.00561194,-0.00520231 -0.0105582,-0.0108655 -0.0148696,-0.0169382 -0.00433185,-0.00611374 -0.00805949,-0.0126576 -0.0112034,-0.0196111l0 -2.04815e-005c-0.00310295,-0.00697397 -0.00542761,-0.0142552 -0.00698421,-0.0218231 -0.00156684,-0.00760889 -0.0023861,-0.0155455 -0.0024373,-0.0237893l0 -2.04815e-005c5.12039e-005,-0.00807997 0.00104456,-0.0158118 0.00295958,-0.0232056 0.00191502,-0.00739384 0.0047722,-0.0144702 0.0085408,-0.0212496l1.02408e-005 -3.07223e-005c0.00381981,-0.00667698 0.00839743,-0.0129239 0.0137431,-0.0187201 0.0053252,-0.00577579 0.0114287,-0.0111112 0.018331,-0.0159858 0.00687156,-0.00485413 0.0143985,-0.00918597 0.0225399,-0.0129546 0.00812093,-0.0037686 0.0168563,-0.00698421 0.0261549,-0.00963657l0 0c0.00932934,-0.00263188 0.0191707,-0.00460835 0.0295037,-0.00593965 0.0102613,-0.00131082 0.0210038,-0.00198671 0.0322072,-0.00204815l1.02408e-005 -1.02408e-005c0.00654385,0 0.0132004,0.000204815 0.0199183,0.000614446 0.00671795,0.000419872 0.0133949,0.00103432 0.0200105,0.00184334 0.00669746,0.000809021 0.0133028,0.00178189 0.0198261,0.00290838 0.00650289,0.00112648 0.0129239,0.00241682 0.0192322,0.00388125l1.02408e-005 0c0.00616494,0.00143371 0.0121353,0.00303127 0.0178804,0.00475172 0.00445474,0.0013313 0.00879682,0.00275477 0.0130263,0.00426016l0 -0.0313777 1.02408e-005 0c-5.12039e-005,-0.0111727 -0.00118793,-0.0216285 -0.0033897,-0.0313368 -0.00219152,-0.00965705 -0.00544809,-0.018587 -0.00973897,-0.0267284 -0.00429088,-0.00814141 -0.00949319,-0.0153612 -0.0155762,-0.0216387 -0.00606254,-0.00624687 -0.0130263,-0.0115823 -0.0208707,-0.0159449l-1.02408e-005 -2.04815e-005c-0.00787515,-0.00444449 -0.0164876,-0.00779323 -0.0258272,-0.0100564 -0.00937031,-0.00227345 -0.0194882,-0.00343066 -0.0303229,-0.0034921l0 1.02408e-005c-0.00894019,0 -0.0180442,0.000911429 -0.0273121,0.00273429 -0.0093191,0.00182286 -0.0188328,0.00456738 -0.028541,0.00822334l-1.02408e-005 0c-0.00966729,0.00359451 -0.019437,0.00805949 -0.0292579,0.013354 -0.00979018,0.005274 -0.0196418,0.0113877 -0.0295037,0.018331l-0.00257043 0.00180238 -0.00158732 -0.0027138 -0.0139274 -0.0236767 -0.0013825 -0.00234514 0.00226321 -0.00151563c0.0117871,-0.00792636 0.0233797,-0.0148594 0.0347572,-0.0207888 0.0114389,-0.00596013 0.0227345,-0.0109576 0.0338867,-0.0149413l0 0c0.01106,-0.00403486 0.0220381,-0.00705589 0.0329036,-0.00907332 0.0109576,-0.00203791 0.0217514,-0.00305175 0.0323711,-0.00305175l1.02408e-005 1.02408e-005c0.0148082,6.14446e-005 0.0286127,0.00156684 0.0413727,0.00451618 0.0127907,0.00295958 0.0245779,0.00737336 0.0353102,0.0132413l0 -1.02408e-005c0.0107938,0.00580652 0.0203587,0.0129136 0.0286844,0.0212803 0.00832575,0.00836671 0.0154124,0.0180033 0.0212394,0.0288892 0.00581676,0.0109064 0.0101998,0.0228472 0.0131491,0.0358222 0.00292886,0.0129034 0.00442401,0.026882 0.00448546,0.041895l1.02408e-005 1.02408e-005 0 0.176295c0,0.00269332 0.000276501,0.00500774 0.000829502,0.00692276 0.000501798,0.00178189 0.00122889,0.00322584 0.0021608,0.00429088l3.07223e-005 4.09631e-005c0.000890947,0.00106504 0.00202767,0.00186382 0.0033897,0.00239634 0.00145419,0.000573483 0.00323608,0.000860225 0.00531496,0.000860225l0.00289814 0 0 0.00289814 0 0.0312241 0 0.00250899 -0.00248851 0.000358427c-0.00119817,0.000163852 -0.00239634,0.000317464 -0.00364571,0.000430112 -0.0012801,0.000122889 -0.00244754,0.000184334 -0.00350234,0.000184334l0 0c-0.00222225,0.000112648 -0.00412703,0.000112648 -0.00579628,0.000112648 -0.00307223,0 -0.00606254,-0.000378909 -0.00898116,-0.00109576 -0.00290838,-0.000727095 -0.00572459,-0.00179213 -0.00844864,-0.00314392l-2.04815e-005 -3.07223e-005c-0.00272405,-0.00139274 -0.00522279,-0.00307223 -0.00745528,-0.00500774 -0.00222225,-0.00193551 -0.00420896,-0.00414751 -0.00591917,-0.0066053l1.02408e-005 0c-0.00180238,-0.00257043 -0.00315416,-0.00529448 -0.00406559,-0.0082131 -0.000901188,-0.00290838 -0.0013825,-0.00603181 -0.00144395,-0.00939079l-1.02408e-005 -5.12039e-005 0 -0.0218333c-0.00430112,0.0049975 -0.00884803,0.00971849 -0.0136509,0.0141425 -0.00669746,0.00616494 -0.0139274,0.0117974 -0.0216797,0.0168461l0 0c-0.00777275,0.00512039 -0.0159244,0.00962632 -0.0244345,0.0135076 -0.00857153,0.00391197 -0.017481,0.00719926 -0.0267182,0.00984138 -0.00923718,0.00264212 -0.0187509,0.00464931 -0.0285308,0.00599085zm-0.0470666 -0.0345831c0.0076601,0.00189454 0.0157605,0.0028879 0.0243218,0.0029391l0 -1.02408e-005c0.00888899,0 0.0175322,-0.000563242 0.0258989,-0.00167949 0.00844864,-0.00112648 0.0167129,-0.00281621 0.0247417,-0.0050487 0.00796732,-0.00222225 0.0155352,-0.00490533 0.0226628,-0.00805949 0.00708661,-0.00314392 0.0137431,-0.00675891 0.0199183,-0.0108347l3.07223e-005 -2.04815e-005c0.00619567,-0.00400414 0.0117666,-0.00841791 0.0166925,-0.0131901 0.00496677,-0.00481316 0.00930886,-0.0100257 0.0129853,-0.015566l6.14446e-005 -0.000102408 0.000112648 -0.000143371c0.0018331,-0.00222225 0.00348186,-0.00444449 0.00489509,-0.00668722 0.00137226,-0.00219152 0.00254995,-0.00442401 0.00347162,-0.00671795 0.000942151,-0.00231441 0.00164876,-0.00451618 0.00211984,-0.0066053 0.000450594,-0.00203791 0.000686132,-0.00403486 0.000686132,-0.00600109l0 -0.0620283c-0.00791612,-0.00285718 -0.0159346,-0.00539689 -0.0240146,-0.00760889 -0.00872514,-0.0023861 -0.0176141,-0.00442401 -0.0266158,-0.00608302l0 1.02408e-005c-0.00920645,-0.00163852 -0.0184334,-0.00289814 -0.0276501,-0.00372764 -0.0089914,-0.00079878 -0.0181466,-0.00121865 -0.0274453,-0.00121865l0 -1.02408e-005c-0.0119715,5.12039e-005 -0.0231953,0.000911429 -0.0336512,0.00259092 -0.0104149,0.001659 -0.0200617,0.00413727 -0.0289404,0.0074348 -0.00883779,0.00328729 -0.0166822,0.00721974 -0.0235231,0.0117974 -0.00678963,0.00453666 -0.0126166,0.00971849 -0.0174912,0.0155455 -0.00484388,0.00583724 -0.0084896,0.0121148 -0.0109167,0.018843 -0.00244754,0.00673843 -0.00369692,0.0139582 -0.00374812,0.0216695 5.12039e-005,0.00788539 0.00109576,0.0153919 0.00309271,0.0224887 0.00199695,0.0071071 0.00496677,0.0138046 0.00888899,0.0200822l0 1.02408e-005c0.00396318,0.00626735 0.00860225,0.0119203 0.0139582,0.0168973 0.005274,0.00490533 0.0112341,0.00915525 0.0179111,0.0127088l1.02408e-005 0c0.00674867,0.00365596 0.0139274,0.00645169 0.0215363,0.00832575zm0.458571 0.0331391c-0.0124425,0.00223249 -0.0258272,0.0033897 -0.0401029,0.0034409l-1.02408e-005 2.04815e-005c-0.00942151,0 -0.0187406,-0.00053252 -0.0279471,-0.00159756 -0.00920645,-0.0010548 -0.01829,-0.00264212 -0.0272609,-0.00475172l-1.02408e-005 0c-0.00888899,-0.0021096 -0.0175629,-0.00473124 -0.026032,-0.00787515 -0.0084384,-0.00314392 -0.016631,-0.00678963 -0.0245574,-0.0109576 -0.0079366,-0.00417823 -0.0154943,-0.00887875 -0.0226526,-0.0140811 -0.00718902,-0.00522279 -0.0140299,-0.0109986 -0.0204918,-0.0172762l-0.00181262 -0.00176141 0.00149515 -0.00202767 0.0174093 -0.0236767 0.00189454 -0.00258067 0.0023861 0.00214032c0.0095444,0.00857153 0.0192834,0.0160166 0.0292067,0.0223556 0.0100155,0.00640048 0.0202767,0.0117257 0.030753,0.0159858l0 1.02408e-005c0.0104353,0.00415775 0.0212701,0.00727095 0.0325247,0.00932934 0.0112341,0.00206864 0.0229291,0.00309271 0.0350951,0.00309271 0.0103637,0 0.0200617,-0.000737336 0.0290428,-0.00219152l0 0c0.00902212,-0.00146443 0.0173888,-0.00365596 0.0250592,-0.00655409 0.00762937,-0.00287766 0.0144292,-0.00640048 0.0203587,-0.0105685 0.00586796,-0.00411679 0.0108962,-0.00887875 0.0150539,-0.0142449l2.04815e-005 -3.07223e-005c0.00416799,-0.00526376 0.00731191,-0.0111317 0.00943175,-0.0175629 0.00214032,-0.00650289 0.00323608,-0.013569 0.00328729,-0.0211472l-1.02408e-005 0c0,-0.00539689 -0.000573483,-0.0103329 -0.00174093,-0.0147774 -0.00114697,-0.00440353 -0.0028879,-0.00839743 -0.00521255,-0.0119612l-2.04815e-005 -2.04815e-005c-0.00228369,-0.00360475 -0.00517159,-0.00694324 -0.00861249,-0.0100155 -0.00350234,-0.00311319 -0.00758841,-0.00594989 -0.0122582,-0.00849984l-2.04815e-005 -1.02408e-005c-0.00470051,-0.0026114 -0.0100257,-0.00508966 -0.0159244,-0.00742456 -0.00588844,-0.00234514 -0.0124323,-0.00458787 -0.0195906,-0.00671795l0 0c-0.00725047,-0.00215056 -0.0149925,-0.00429088 -0.023267,-0.0064312 -0.0082131,-0.00213008 -0.0171021,-0.00430112 -0.0266874,-0.00652337 -0.0103432,-0.00239634 -0.0199593,-0.00478244 -0.028838,-0.0071583 -0.00890947,-0.00237586 -0.0171635,-0.0047722 -0.0247622,-0.00716854l-1.02408e-005 0c-0.00756793,-0.0023861 -0.0145521,-0.00498726 -0.0209219,-0.00782395 -0.00639024,-0.00282645 -0.0120636,-0.00585772 -0.0170202,-0.0090938 -0.00512039,-0.00325657 -0.0095956,-0.00695348 -0.0134257,-0.01106 -0.00385053,-0.00413727 -0.00703541,-0.00869441 -0.0095444,-0.0136509l1.02408e-005 0c-0.00254995,-0.00498726 -0.00444449,-0.010548 -0.00568363,-0.0166925 -0.00122889,-0.0061035 -0.0018331,-0.0127702 -0.0018331,-0.0200002l1.02408e-005 -2.04815e-005c5.12039e-005,-0.00921669 0.0010036,-0.0178599 0.00279573,-0.0259092 0.0018331,-0.00820286 0.00453666,-0.0157913 0.00806973,-0.0227448l1.02408e-005 -1.02408e-005c0.00357403,-0.00690228 0.00784443,-0.0132413 0.0127805,-0.0189761l0 -1.02408e-005c0.00494629,-0.00574507 0.010589,-0.0109064 0.0168768,-0.0154636l0 0c0.00621615,-0.0045469 0.0129546,-0.00853056 0.0201846,-0.0119203 0.00726071,-0.00339994 0.0149822,-0.00619567 0.0231339,-0.00837695l0 1.02408e-005c0.00803901,-0.00223249 0.0164364,-0.00391197 0.0251309,-0.00503846 0.00874562,-0.00112648 0.017737,-0.00168973 0.0269127,-0.00168973l1.02408e-005 1.02408e-005c0.00962632,6.14446e-005 0.0188328,0.000614446 0.0276194,0.00168973 0.00883779,0.00109576 0.0173581,0.0027138 0.0255712,0.00490533 0.00819262,0.00218128 0.0159244,0.00478244 0.0231953,0.00779323 0.00728119,0.00303127 0.014122,0.00649265 0.0205123,0.0104046l0 1.02408e-005c0.00634928,0.00385053 0.0121353,0.00803901 0.0173581,0.0125449 0.00523303,0.00451618 0.00991307,0.00938055 0.0140401,0.0145931l0.00162828 0.00205839 -0.0018843 0.00182286 -0.0194984 0.0187918 -0.00220177 0.00213008 -0.00199695 -0.00232466c-0.00390173,-0.00451618 -0.00818238,-0.00866369 -0.0128726,-0.0124118l0 1.02408e-005c-0.004721,-0.00377884 -0.00986186,-0.00716854 -0.0154328,-0.0101486l-1.02408e-005 0c-0.00559146,-0.00302103 -0.0114185,-0.00567339 -0.0174912,-0.0079366 -0.00609326,-0.00226321 -0.0124733,-0.00417823 -0.0191502,-0.00571435 -0.00668722,-0.00154636 -0.0134871,-0.00268308 -0.0203791,-0.0034409 -0.00687156,-0.000747576 -0.0139172,-0.00112648 -0.0211062,-0.00112648 -0.0067077,0 -0.0131799,0.000348186 -0.0193858,0.0010548 -0.00613422,0.000686132 -0.0120636,0.00174093 -0.0177575,0.00315416 -0.00568363,0.00140299 -0.0110498,0.00318488 -0.016078,0.00534568 -0.00500774,0.00215056 -0.00966729,0.00468003 -0.0139787,0.00758841 -0.0042704,0.0028879 -0.00805949,0.00616494 -0.0113673,0.0098209 -0.00333849,0.00369692 -0.00624687,0.00782395 -0.00870466,0.0123401l1.02408e-005 0c-0.00237586,0.00447522 -0.00417823,0.00940103 -0.00539689,0.0147467 -0.00122889,0.00542761 -0.0018843,0.0112853 -0.00193551,0.0175527l1.02408e-005 0c0,0.0049975 0.000409631,0.0095444 0.00124937,0.0135997 0.000829502,0.0039939 0.00206864,0.00756793 0.00372764,0.0106709 0.00172045,0.00317464 0.00389149,0.0061035 0.00650289,0.00874562 0.00264212,0.0026626 0.00575531,0.00506918 0.00937031,0.0072095 0.00372764,0.00219152 0.00795708,0.00428064 0.012719,0.00624687l1.02408e-005 0c0.00480292,0.00199695 0.0101691,0.00388125 0.0161087,0.00564266 0.00603181,0.00181262 0.0125552,0.00364571 0.0195804,0.00547881 0.00695348,0.00182286 0.0146853,0.00373788 0.0231851,0.00573483l0 1.02408e-005c0.0112853,0.00257043 0.021946,0.00519207 0.0319717,0.00782395 0.0102408,0.00268308 0.0198466,0.00540713 0.028797,0.00813117l2.04815e-005 0c0.00884803,0.00274453 0.0170099,0.00571435 0.0244857,0.00888899 0.00746552,0.0031644 0.0142859,0.00656433 0.0204508,0.0101793l3.07223e-005 2.04815e-005c0.0123606,0.0074348 0.0217514,0.0166003 0.0281621,0.027476l1.02408e-005 1.02408e-005c0.0032156,0.00553002 0.00565291,0.011695 0.00727095,0.0184641 0.00159756,0.00672819 0.00240658,0.0140913 0.00240658,0.0220996l-1.02408e-005 1.02408e-005c-5.12039e-005,0.011142 -0.00157708,0.0215568 -0.00455714,0.0312241 -0.00299031,0.00968777 -0.00745528,0.0186484 -0.0133847,0.0268513l0 0c-0.00584748,0.00818238 -0.0129239,0.0154328 -0.0211882,0.0217514 -0.0082643,0.00631856 -0.0177165,0.0117052 -0.0283362,0.0161497 -0.010548,0.00442401 -0.0220893,0.0077625 -0.0345831,0.0100052zm0.221365 -0.343219l0 -0.139264 0 -0.00290838 0.00290838 0 0.0305175 0 0.00290838 0 0 0.00290838 0 0.139264 0.0651006 0 0.00290838 0 0 0.00290838 0 0.0306404 0 0.00289814 -0.00290838 0 -0.0651006 0 0 0.300362 0 0.00289814 -0.00290838 0 -0.0305175 0 -0.00290838 0 0 -0.00289814 0 -0.300362 -0.0651108 0 -0.00289814 0 0 -0.00289814 0 -0.0306404 0 -0.00290838 0.00289814 0 0.0651108 0zm0.760951 -0.0290633c0.00136202,-0.00013313 0.00290838,-0.000317464 0.00445474,-0.000512039l0.00325657 -0.000409631 0 0.00328729 0 0.0327295 0 0.00279573 -0.00279573 0.000102408c-0.0107733,0.00039939 -0.0211062,0.00174093 -0.0309681,0.00402462 -0.00983114,0.00228369 -0.0191912,0.00549929 -0.028029,0.00962632l-1.02408e-005 2.04815e-005c-0.00891971,0.00413727 -0.017184,0.00914501 -0.0248134,0.014972 -0.00763962,0.005827 -0.0146648,0.0125142 -0.0210857,0.0200105l1.02408e-005 0c-0.00636976,0.00750649 -0.0119715,0.0157298 -0.0167949,0.02467 -0.00476196,0.00883779 -0.0087661,0.0183924 -0.0119919,0.0286639l0 0.225891 0 0.00289814 -0.00290838 0 -0.0348186 0 -0.00289814 0 0 -0.00289814 0 -0.362103 0 -0.00290838 0.00289814 0 0.0327295 0 0.00290838 0 0 0.00290838 0 0.0780552c0.00277525,-0.00484388 0.00570411,-0.00950344 0.00879682,-0.0139684 0.00524327,-0.00757817 0.0109371,-0.0146341 0.0170509,-0.0211574l2.04815e-005 -1.02408e-005c0.00618543,-0.00649265 0.0126883,-0.0123709 0.0195087,-0.0176039 0.00678963,-0.00521255 0.0139172,-0.00980042 0.0213827,-0.0137124 0.00742456,-0.00398366 0.0150027,-0.0071583 0.0226935,-0.00955464 0.00772154,-0.00240658 0.0155967,-0.0040451 0.0236152,-0.00493605l0.000204815 -2.04815e-005 0.000112648 0c0.00240658,0 0.00458787,-3.07223e-005 0.00642096,-9.21669e-005 0.00201743,-7.16854e-005 0.0039427,-0.000184334 0.00573483,-0.000348186l9.21669e-005 -1.02408e-005c0.00193551,-0.000122889 0.00367644,-0.00026626 0.00522279,-0.000409631z"/>
 </g>
</svg>
